<?xml version="1.0" standalone="no"?>
<!DOCTYPE svg PUBLIC "-//W3C//DTD SVG 20010904//EN"
 "http://www.w3.org/TR/2001/REC-SVG-20010904/DTD/svg10.dtd">
<svg version="1.0" xmlns="http://www.w3.org/2000/svg"
 width="1024.000000pt" height="1024.000000pt" viewBox="0 0 1024.000000 1024.000000"
 preserveAspectRatio="xMidYMid meet">

<g transform="translate(0.000000,1024.000000) scale(0.100000,-0.100000)"
fill="#0d6efd" stroke="none">
<path d="M4525 9064 c-667 -90 -1292 -465 -1742 -1044 -178 -229 -348 -558
-441 -851 -85 -269 -112 -442 -119 -751 l-5 -236 -97 -22 c-318 -74 -582 -220
-816 -455 -231 -230 -362 -467 -437 -787 -22 -91 -22 -108 -25 -996 l-4 -902
73 -45 c83 -51 789 -475 948 -570 58 -34 238 -142 400 -240 162 -98 342 -206
400 -240 58 -35 245 -147 415 -250 171 -103 331 -200 356 -215 25 -15 140 -85
255 -156 199 -121 600 -364 914 -554 80 -48 183 -111 229 -139 46 -28 91 -51
99 -51 16 0 168 90 1037 615 253 153 809 488 1235 745 426 257 870 524 985
595 116 70 284 173 375 228 388 234 414 251 428 278 10 19 12 200 9 864 -4
726 -6 851 -20 919 -61 298 -220 557 -442 719 -53 39 -172 97 -268 133 -68 25
-77 32 -72 49 18 65 28 302 17 422 -51 578 -405 992 -962 1127 l-95 23 -8 39
c-84 403 -200 637 -432 869 -126 126 -207 184 -495 352 -113 66 -263 157 -333
201 -325 205 -590 303 -897 331 -151 14 -341 12 -465 -5z m520 -264 c264 -130
677 -359 670 -371 -3 -3 -23 -9 -46 -13 -44 -7 -90 16 -629 319 -244 138 -245
138 -162 130 30 -4 91 -27 167 -65z m-277 -32 c225 -116 684 -368 701 -384 13
-11 12 -14 -5 -19 -10 -4 -28 -10 -39 -14 -15 -6 -42 4 -105 39 -47 26 -159
87 -250 137 -542 296 -562 308 -538 314 54 16 83 7 236 -73z m545 33 c52 -18
244 -111 332 -161 22 -12 76 -43 120 -68 44 -25 107 -63 140 -86 l60 -41 -32
-3 c-26 -3 -64 15 -185 86 -84 49 -223 128 -308 175 -147 82 -203 116 -189
117 3 0 31 -9 62 -19z m-778 -97 c110 -58 283 -152 385 -208 102 -57 220 -122
263 -145 42 -23 77 -45 77 -49 0 -4 -18 -14 -39 -23 -34 -15 -42 -15 -59 -3
-21 15 -419 237 -682 382 -85 46 -172 94 -192 106 l-37 21 32 12 c18 6 37 12
42 12 6 1 100 -47 210 -105z m-82 -148 c183 -101 370 -205 417 -231 47 -26
113 -63 148 -82 66 -37 67 -42 16 -62 -37 -15 -35 -16 -300 132 -566 314 -703
392 -698 396 5 5 63 28 77 30 4 0 157 -82 340 -183z m-143 -126 c146 -82 319
-179 385 -216 66 -38 137 -78 158 -89 20 -11 37 -22 37 -25 0 -3 -15 -13 -33
-23 l-33 -18 -127 70 c-69 39 -133 71 -141 71 -8 0 -24 -12 -35 -27 -19 -23
-20 -29 -8 -47 8 -12 56 -44 108 -72 51 -28 95 -56 97 -62 4 -14 -59 -47 -67
-35 -3 5 -58 37 -121 72 -96 53 -119 62 -140 54 -20 -7 -25 -15 -25 -42 0 -32
5 -37 100 -92 55 -32 105 -60 110 -62 10 -4 -33 -46 -48 -47 -4 0 -40 19 -80
43 -101 61 -290 165 -320 176 -32 12 -67 -11 -67 -44 0 -30 26 -50 200 -148
74 -43 146 -86 159 -96 l23 -18 -31 -22 -31 -22 -78 42 c-42 24 -131 73 -196
111 -66 37 -128 68 -139 68 -24 0 -46 -27 -47 -57 0 -28 30 -51 210 -153 80
-45 151 -88 158 -94 10 -9 5 -18 -20 -43 l-33 -31 -170 99 c-98 57 -182 98
-197 99 -19 0 -33 -8 -44 -25 -29 -44 -23 -50 205 -187 l133 -81 -35 -35 -35
-35 -83 50 c-341 203 -421 246 -447 237 -15 -5 -29 -21 -35 -37 -14 -42 9 -61
232 -193 215 -128 261 -157 261 -164 -1 -3 -14 -20 -30 -39 l-29 -33 -148 87
c-81 48 -185 110 -229 136 -93 56 -126 61 -150 24 -30 -46 -11 -64 218 -201
117 -70 221 -132 230 -139 16 -11 16 -14 -5 -43 -12 -17 -26 -32 -31 -32 -9 0
-272 151 -421 242 -43 26 -88 48 -99 48 -50 0 -74 -65 -36 -98 16 -13 284
-179 472 -291 33 -19 34 -24 8 -66 l-21 -33 -97 55 c-145 83 -203 113 -217
113 -20 0 -50 -48 -65 -103 -15 -54 -23 -63 -40 -42 -7 8 -19 15 -26 15 -20 0
-17 20 12 86 32 72 26 100 -24 121 -36 15 -37 15 -62 -15 -26 -32 -141 -337
-162 -429 -6 -29 -15 -53 -20 -53 -4 0 -36 17 -70 38 -35 21 -152 90 -261 152
-198 113 -199 113 -193 143 3 17 8 32 10 34 3 4 81 -40 381 -214 50 -29 80
-29 99 -1 38 54 18 73 -244 222 -191 109 -192 109 -186 139 3 17 9 33 12 36 7
7 58 -21 251 -135 77 -46 155 -87 171 -90 27 -5 32 -2 47 25 29 58 41 48 -250
216 -82 48 -156 93 -163 99 -11 11 -10 19 4 49 l17 36 41 -25 c23 -14 69 -40
104 -57 l64 -32 24 28 c13 15 24 34 24 42 0 21 -37 51 -125 102 -44 25 -82 47
-84 49 -1 1 7 21 19 43 l23 39 34 -16 c35 -17 35 -16 59 11 13 16 24 35 24 43
0 15 -30 49 -50 56 -9 3 -5 16 15 46 15 23 29 42 32 42 5 0 103 -54 278 -154
83 -47 158 -86 167 -86 18 0 58 45 58 65 0 22 -45 53 -230 160 -102 58 -189
110 -193 114 -9 9 0 30 27 64 14 18 16 17 53 -6 63 -41 77 -42 107 -6 24 28
25 34 13 53 -8 11 -30 30 -50 41 -21 11 -37 25 -37 31 0 5 15 24 33 42 l32 31
120 -65 c66 -36 196 -109 288 -161 157 -90 170 -95 193 -83 28 15 42 55 27 79
-5 9 -128 82 -272 163 -144 80 -265 148 -267 151 -3 2 9 18 26 35 l30 30 152
-85 c357 -200 370 -206 387 -196 9 5 23 22 31 36 14 24 13 28 -5 46 -11 10
-87 56 -170 101 -82 46 -185 103 -228 128 l-79 45 30 29 c36 33 46 34 74 8 11
-10 36 -26 55 -35 32 -16 36 -16 54 1 10 9 19 25 19 34 0 18 -32 51 -69 70
l-24 12 24 20 c52 42 195 132 281 178 l92 48 70 -35 c39 -20 190 -102 336
-183z m1875 -240 c338 -87 569 -356 685 -796 28 -107 40 -223 40 -382 0 -127
1 -134 24 -157 23 -23 28 -24 123 -18 115 7 215 -7 322 -44 77 -26 171 -71
171 -82 0 -4 -37 -28 -82 -55 -93 -55 -473 -289 -689 -425 l-144 -90 -40 23
c-22 12 -134 80 -250 151 -339 207 -324 201 -385 163 -109 -68 -553 -338 -725
-441 -110 -66 -207 -126 -216 -133 -29 -26 -39 -16 -39 40 0 49 3 56 33 78 34
26 243 156 492 305 245 147 680 412 1134 690 181 110 206 136 181 181 -22 39
-55 39 -120 -1 -30 -18 -116 -71 -190 -117 -74 -45 -178 -109 -230 -140 -52
-31 -198 -120 -325 -197 -126 -77 -324 -198 -440 -268 -115 -70 -282 -172
-370 -226 l-160 -99 -5 721 c-5 699 -6 721 -24 735 -29 21 -64 17 -91 -11
l-25 -24 0 -657 0 -656 -25 16 c-52 34 -441 270 -468 284 -26 13 -31 13 -55
-5 -35 -26 -38 -53 -10 -84 20 -22 449 -286 531 -327 25 -12 27 -18 27 -73 0
-32 -2 -59 -4 -59 -3 0 -86 49 -400 237 -95 57 -129 65 -146 34 -24 -46 -13
-70 53 -110 34 -21 107 -67 162 -101 55 -34 152 -95 215 -134 l115 -71 3 -383
c1 -210 -1 -382 -4 -382 -7 0 -348 204 -438 262 -70 45 -99 48 -122 13 -34
-52 -14 -70 341 -290 105 -65 198 -125 208 -133 17 -15 23 -62 10 -75 -3 -4
-13 -1 -22 6 -17 15 -228 142 -485 294 -170 100 -200 109 -222 64 -20 -39 -2
-63 82 -115 223 -138 347 -213 420 -256 44 -26 115 -71 157 -99 l77 -52 0
-184 c0 -102 -4 -185 -8 -185 -4 0 -12 4 -18 9 -17 17 -452 279 -474 286 -27
9 -60 -19 -60 -50 0 -13 8 -32 18 -44 27 -33 584 -371 611 -371 13 0 76 33
140 73 202 128 380 240 576 362 105 65 236 147 293 182 57 35 108 63 115 61
12 -3 92 -54 363 -230 l134 -87 0 -56 c0 -30 -2 -55 -5 -55 -4 0 -59 33 -123
73 -206 130 -346 215 -375 228 -24 11 -31 10 -55 -8 -18 -14 -27 -29 -27 -49
0 -34 7 -39 358 -255 l227 -141 0 -44 0 -43 -97 63 c-132 85 -549 335 -577
346 -31 11 -69 -7 -251 -120 -83 -51 -177 -110 -210 -130 -33 -20 -155 -96
-271 -169 -116 -72 -216 -131 -222 -131 -7 0 -44 21 -83 46 -94 60 -405 247
-447 268 -40 21 -70 13 -83 -21 -14 -37 8 -64 88 -112 38 -22 156 -96 263
-164 l195 -125 5 -212 c5 -195 7 -213 24 -226 26 -18 66 -18 94 2 22 15 22 20
22 227 l1 212 47 31 c82 55 280 177 487 301 110 67 227 137 260 158 l59 37 33
-17 c18 -10 33 -25 33 -34 0 -28 -12 -61 -21 -61 -16 0 -263 -152 -281 -172
-10 -11 -18 -29 -18 -41 0 -27 28 -57 52 -57 11 0 68 29 128 66 l109 65 58
-39 c32 -22 132 -87 223 -144 91 -57 213 -135 272 -174 l108 -69 0 -52 0 -52
-182 111 c-101 61 -252 153 -337 205 -84 51 -160 93 -170 93 -29 0 -80 -39
-87 -66 -11 -41 -40 -20 476 -342 146 -90 273 -172 283 -180 12 -10 17 -30 17
-63 l0 -49 -87 58 c-49 32 -135 87 -193 122 -347 211 -569 345 -600 363 -35
20 -37 20 -63 2 -34 -22 -44 -58 -24 -88 8 -12 139 -98 291 -192 151 -93 276
-172 276 -175 0 -3 -51 -36 -112 -74 -62 -38 -135 -84 -163 -101 -27 -18 -131
-83 -230 -145 -199 -125 -394 -248 -558 -352 -59 -38 -123 -76 -142 -85 l-34
-16 -108 65 c-59 36 -200 121 -313 190 -113 69 -281 171 -375 227 -93 57 -197
120 -230 141 -33 21 -143 88 -245 150 -102 62 -212 130 -245 150 -33 21 -213
131 -400 245 -187 114 -401 245 -475 290 -504 308 -507 310 -537 269 -35 -48
-10 -79 147 -176 185 -115 1182 -725 1460 -894 102 -61 246 -149 320 -194 74
-45 248 -150 385 -233 395 -237 556 -339 561 -352 3 -7 1 -44 -3 -83 l-8 -71
-115 73 c-63 40 -187 118 -275 173 -461 290 -1076 682 -1250 798 -100 66
-1087 678 -1295 803 -12 7 -15 31 -15 110 0 118 12 103 -151 191 -61 33 -194
108 -295 167 -101 59 -209 121 -239 139 -35 20 -56 38 -58 52 -4 30 60 195
114 294 181 329 541 606 883 680 41 9 61 8 107 -6 99 -29 194 -19 194 20 0 27
30 16 136 -47 69 -42 104 -69 104 -80 0 -10 -2 -18 -4 -18 -2 0 -46 25 -97 55
-51 30 -101 57 -111 61 -22 7 -88 -39 -88 -61 0 -19 58 -60 197 -141 94 -55
113 -70 113 -90 0 -13 -3 -24 -6 -24 -3 0 -65 35 -137 79 -250 148 -281 159
-308 109 -23 -43 -4 -64 131 -143 l130 -77 1 -66 c1 -116 8 -126 144 -207 203
-121 654 -389 760 -450 55 -32 107 -65 117 -72 16 -14 33 -61 25 -69 -4 -4
-72 34 -392 221 -671 393 -684 400 -718 391 -31 -7 -44 -43 -28 -75 6 -11 37
-36 69 -54 31 -19 98 -59 147 -89 50 -31 187 -112 305 -180 118 -69 280 -163
360 -210 80 -47 179 -104 222 -127 42 -23 80 -47 86 -54 12 -15 33 -79 28 -84
-2 -2 -25 10 -52 26 -27 16 -164 96 -304 177 -140 81 -302 175 -360 209 -58
34 -193 112 -300 174 -107 62 -227 132 -266 156 -94 57 -105 60 -137 34 -33
-25 -35 -59 -4 -86 12 -11 94 -62 182 -113 88 -51 268 -157 400 -235 132 -78
339 -200 460 -272 296 -175 524 -316 624 -385 64 -44 92 -47 119 -13 24 30 22
39 -37 197 -88 233 -164 550 -196 808 -18 149 -21 556 -5 722 14 143 59 367
105 528 109 376 294 707 582 1040 358 415 933 755 1366 810 110 14 299 4 392
-20z m1038 -1096 c140 -36 354 -150 475 -252 66 -56 95 -102 36 -56 -50 39
-183 116 -255 148 -64 28 -237 82 -291 91 -36 6 -38 7 -38 45 0 22 3 40 6 40
3 0 33 -7 67 -16z m-3702 -251 c31 -19 35 -36 16 -70 l-12 -22 -33 20 c-35 23
-36 26 -22 63 11 31 13 31 51 9z m-234 -81 c20 -15 22 -21 13 -54 -14 -48 -20
-51 -54 -25 -27 22 -27 22 -11 60 17 42 21 43 52 19z m-547 -135 c129 -74 244
-136 255 -139 16 -3 19 -10 17 -38 -7 -70 25 -84 -399 165 -110 64 -133 81
-133 100 0 29 10 56 19 51 3 -2 112 -64 241 -139z m943 126 c13 -16 14 -22 2
-50 -15 -35 -24 -40 -43 -21 -15 15 -15 29 -2 62 11 31 21 32 43 9z m-213
-123 c0 -10 -4 -31 -10 -45 -10 -26 -10 -26 -40 -8 -34 20 -35 23 -18 69 11
32 12 32 40 18 16 -8 28 -23 28 -34z m4266 -37 c93 -90 164 -218 206 -374 19
-71 22 -108 22 -234 -1 -160 -8 -221 -55 -465 -41 -212 -46 -273 -25 -304 29
-45 50 -50 123 -27 82 26 215 28 294 5 61 -18 149 -61 149 -72 0 -4 -24 -21
-53 -38 -28 -17 -101 -61 -162 -99 -177 -109 -228 -141 -445 -273 -113 -69
-275 -168 -360 -220 -85 -52 -216 -131 -290 -175 -74 -44 -182 -110 -240 -147
-58 -36 -131 -80 -162 -98 l-58 -32 0 54 0 55 136 83 c145 89 243 149 339 208
33 20 121 74 195 120 198 121 230 143 236 163 9 28 -4 65 -26 77 -25 13 -36 8
-240 -118 -85 -53 -252 -155 -370 -227 -118 -72 -227 -139 -242 -149 l-28 -18
0 65 0 66 93 57 c50 32 112 70 137 84 25 15 162 98 305 185 143 87 286 173
317 192 32 19 60 44 64 55 10 31 -4 64 -32 77 -22 10 -31 9 -58 -7 -17 -11
-92 -57 -166 -102 -74 -46 -211 -129 -305 -185 -93 -56 -207 -125 -252 -153
-46 -29 -87 -52 -93 -52 -6 0 -10 26 -10 58 0 70 -2 67 135 150 260 156 683
415 727 446 56 38 62 91 15 120 -21 13 -41 3 -267 -135 -249 -153 -357 -218
-485 -295 l-120 -72 -3 290 c-3 329 -9 302 85 357 131 78 155 108 128 162 -24
45 -28 44 -194 -59 l-69 -43 -189 118 c-480 303 -495 312 -526 300 -9 -3 -23
-18 -33 -32 -26 -40 -8 -63 107 -133 57 -34 156 -95 220 -135 63 -39 161 -100
216 -135 75 -46 103 -69 107 -89 8 -31 6 -182 -3 -187 -3 -2 -62 35 -131 83
-155 107 -422 281 -488 318 l-49 27 -43 -28 c-24 -16 -156 -97 -294 -181 -138
-83 -315 -191 -393 -238 -77 -48 -144 -87 -147 -87 -3 0 -6 22 -6 49 0 59 0
59 167 162 112 70 133 90 133 127 0 27 -34 55 -58 48 -11 -4 -66 -36 -123 -71
-57 -36 -107 -65 -111 -65 -5 0 -8 74 -8 164 0 133 3 167 15 180 8 8 50 36 93
62 143 87 296 180 517 313 121 73 262 160 314 193 l94 59 101 -62 c55 -33 176
-109 269 -167 l167 -107 0 -92 0 -93 -102 64 c-57 35 -146 91 -200 124 -117
74 -139 81 -167 53 -27 -27 -27 -54 2 -85 12 -14 114 -83 227 -154 113 -71
227 -143 254 -160 28 -18 55 -32 61 -32 17 0 238 139 258 162 25 29 22 74 -7
93 -28 18 -39 15 -124 -38 -34 -22 -65 -37 -68 -35 -3 3 -2 47 2 97 l7 91 116
73 c111 71 522 325 756 469 61 37 113 67 116 67 3 1 28 -20 55 -46z m-4489
-76 c-7 -49 -11 -53 -42 -37 -27 14 -33 47 -15 80 9 17 14 18 36 8 23 -11 25
-17 21 -51z m363 48 c9 -11 9 -22 0 -50 -13 -39 -17 -41 -43 -20 -17 12 -18
18 -7 49 12 38 30 45 50 21z m-929 -133 c333 -191 316 -178 303 -228 -5 -21
-8 -20 -69 20 -34 22 -153 93 -264 156 -196 112 -200 116 -201 148 0 17 2 32
4 32 2 0 104 -58 227 -128z m718 21 c17 -15 20 -24 15 -50 -7 -37 -22 -41 -54
-15 -18 15 -21 24 -15 50 7 36 23 40 54 15z m-214 -85 c20 -9 25 -18 25 -48 0
-47 -6 -52 -42 -34 -20 10 -28 21 -24 30 3 9 6 27 6 40 0 28 1 28 35 12z m365
-21 c0 -28 -13 -57 -26 -57 -19 0 -24 13 -17 53 5 32 8 35 24 26 11 -5 19 -15
19 -22z m-1075 -3 c17 -11 25 -26 25 -45 0 -33 0 -32 -34 -19 -21 8 -26 16
-26 45 0 40 2 41 35 19z m868 -75 c30 -16 37 -30 30 -59 -9 -39 -12 -41 -39
-24 -19 13 -24 25 -24 55 0 43 2 44 33 28z m-676 -39 c34 -20 43 -31 43 -52 0
-16 -2 -28 -5 -28 -16 0 -85 42 -93 56 -10 17 -4 57 7 52 3 -2 25 -14 48 -28z
m497 -65 c12 -9 19 -27 19 -45 0 -38 -6 -44 -32 -30 -16 8 -21 20 -21 50 0 43
5 47 34 25z m338 -30 c-4 -38 -8 -41 -27 -25 -27 22 -17 64 15 57 10 -2 14
-12 12 -32z m-957 -45 c93 -52 145 -90 145 -105 0 -8 -3 -15 -6 -15 -4 0 -60
30 -125 66 -103 57 -119 70 -119 91 0 24 1 24 23 11 12 -8 49 -30 82 -48z
m390 -21 c34 -20 49 -59 23 -59 -22 0 -138 79 -138 93 0 25 13 27 47 7 18 -11
49 -29 68 -41z m396 -9 c20 -11 25 -45 10 -68 -14 -23 -61 6 -61 38 0 41 14
49 51 30z m-157 -134 c13 -35 -3 -53 -33 -37 -16 9 -21 21 -21 53 0 40 0 40
23 26 12 -9 26 -27 31 -42z m304 17 c-2 -17 -10 -29 -20 -31 -14 -3 -18 3 -18
27 0 25 4 31 21 31 16 0 20 -5 17 -27z m-535 -75 c19 -14 27 -28 27 -48 l0
-28 -40 21 c-34 19 -40 27 -40 55 0 35 1 35 53 0z m389 -32 c9 -13 11 -56 3
-56 -3 0 -17 7 -30 16 -17 11 -25 25 -25 46 0 27 2 28 23 17 12 -7 25 -17 29
-23z m125 -99 c-6 -19 -22 -6 -25 20 -2 27 -2 27 13 8 8 -10 14 -23 12 -28z
m-174 -70 c108 -65 147 -93 147 -108 0 -10 -3 -19 -7 -19 -5 0 -46 23 -93 51
-47 28 -111 64 -142 81 -32 17 -58 37 -58 44 0 7 -3 20 -7 30 -8 22 -11 23
160 -79z m-195 -83 c97 -59 216 -129 263 -155 82 -46 109 -73 92 -90 -4 -4
-75 32 -158 80 -82 48 -203 118 -267 155 -99 57 -118 72 -118 92 0 13 2 24 5
24 3 0 85 -48 183 -106z m2984 -203 c114 -75 263 -171 332 -214 l126 -78 0
-50 c0 -27 -2 -49 -5 -49 -2 0 -55 32 -117 71 -338 214 -535 336 -549 342 -9
3 -25 0 -35 -8 -11 -7 -71 -44 -134 -83 -63 -38 -153 -93 -200 -122 -47 -29
-141 -87 -210 -130 -69 -42 -162 -100 -207 -127 -90 -56 -93 -55 -93 24 0 41
0 41 315 235 425 263 549 337 560 330 5 -3 103 -67 217 -141z m2160 108 c62
-24 222 -111 258 -140 20 -16 15 -15 -27 5 -64 31 -176 63 -254 72 -33 4 -61
9 -63 13 -6 11 14 71 24 71 5 0 33 -9 62 -21z m-5236 -52 c8 -27 -1 -31 -36
-17 -32 13 -50 37 -50 65 0 14 6 13 40 -6 22 -12 42 -31 46 -42z m-334 2 c13
-24 15 -35 6 -38 -15 -5 -48 36 -48 61 0 29 22 17 42 -23z m158 -99 c0 -20 -2
-22 -10 -10 -5 8 -10 26 -10 40 0 20 2 22 10 10 5 -8 10 -26 10 -40z m483 -74
c108 -64 147 -92 147 -106 0 -16 -24 -5 -148 64 -198 111 -192 107 -192 135 0
22 1 22 23 9 12 -8 88 -54 170 -102z m-315 8 c17 -11 22 -25 22 -56 0 -36 -2
-39 -16 -27 -9 7 -20 22 -24 34 -26 69 -23 78 18 49z m2907 -36 c19 -13 35
-25 35 -28 0 -7 -117 -84 -395 -258 -132 -82 -280 -175 -330 -206 -96 -61
-115 -78 -115 -110 0 -26 28 -56 53 -56 10 0 83 40 161 88 77 49 191 119 251
157 61 37 162 100 225 140 198 125 254 156 270 152 8 -2 103 -59 210 -127 107
-68 212 -133 232 -144 37 -20 38 -22 38 -78 0 -32 -2 -58 -4 -58 -3 0 -69 42
-148 93 -218 142 -313 197 -342 197 -16 0 -146 -75 -348 -201 -335 -209 -597
-375 -659 -415 -19 -13 -38 -24 -42 -24 -4 0 -7 83 -7 184 l0 184 118 74 c64
41 241 150 392 243 151 92 291 178 310 191 44 29 53 29 95 2z m-2532 -193 c79
-47 117 -75 117 -87 0 -10 -3 -18 -6 -18 -3 0 -43 22 -88 48 -44 27 -108 64
-141 82 -63 34 -85 55 -85 77 0 16 29 1 203 -102z m5254 -60 c45 -60 103 -189
110 -246 4 -30 0 -40 -26 -66 -34 -34 -37 -49 -19 -88 8 -18 19 -25 40 -25 26
0 28 -3 28 -40 0 -29 -6 -45 -22 -58 -47 -38 -58 -53 -58 -80 0 -42 22 -66 53
-60 26 5 27 4 27 -48 0 -49 -2 -54 -34 -73 -19 -12 -37 -28 -40 -37 -18 -46 8
-94 51 -94 22 0 23 -3 23 -65 l0 -65 -135 -88 c-75 -48 -182 -116 -238 -151
-99 -62 -159 -100 -417 -264 -107 -68 -182 -115 -457 -285 -66 -41 -81 -92
-38 -132 l24 -23 163 103 c90 57 210 133 268 170 58 37 193 122 300 190 107
68 268 170 357 227 89 57 165 103 168 103 3 0 5 -31 5 -70 0 -62 -2 -71 -22
-81 -13 -7 -122 -75 -243 -152 -325 -207 -672 -427 -915 -581 l-215 -136 -5
243 c-5 258 -9 277 -53 277 -11 0 -29 -7 -39 -17 -17 -15 -18 -37 -18 -277 0
-144 -3 -271 -6 -283 -4 -13 -23 -33 -43 -44 -36 -22 -324 -202 -391 -244 -50
-33 -185 -117 -525 -330 -165 -104 -430 -270 -590 -370 -159 -100 -353 -221
-430 -269 -154 -97 -185 -124 -185 -165 0 -63 43 -66 131 -10 35 23 91 58 124
79 82 50 527 329 765 480 107 67 215 135 240 150 25 15 133 82 240 150 107 68
229 145 270 170 41 26 156 98 255 160 99 62 286 179 415 260 129 81 294 185
365 230 72 46 216 137 320 203 437 275 531 334 543 341 9 5 12 -8 12 -56 l-1
-63 -87 -54 c-48 -30 -139 -86 -202 -126 -179 -112 -718 -447 -890 -552 -157
-97 -333 -207 -470 -294 -41 -26 -167 -104 -280 -175 -113 -70 -250 -155 -305
-189 -55 -34 -147 -92 -205 -127 -58 -36 -143 -89 -190 -118 -47 -29 -134 -83
-195 -120 -60 -37 -202 -125 -315 -195 -113 -70 -264 -163 -337 -206 -166 -99
-174 -109 -166 -198 8 -99 2 -112 -66 -154 -32 -21 -62 -37 -65 -37 -3 0 -6
124 -6 275 l0 275 68 46 c37 25 90 60 117 77 43 28 50 37 53 69 3 30 -1 40
-22 53 -28 19 -37 16 -149 -55 l-62 -40 -3 71 c-2 44 2 76 9 85 7 8 51 39 98
68 47 30 138 86 201 126 142 90 238 151 400 250 69 42 197 121 285 175 88 54
219 134 290 178 72 43 142 91 158 105 l27 26 0 343 0 344 45 -32 45 -32 0
-361 0 -361 -208 -129 c-225 -140 -262 -169 -262 -201 0 -31 37 -67 61 -60 21
7 309 182 462 281 l97 63 0 419 0 419 78 48 c42 26 118 72 167 103 50 30 142
87 205 127 63 40 183 114 265 165 83 51 156 99 163 108 17 22 15 62 -5 84 -30
34 11 55 -548 -292 -165 -102 -306 -190 -312 -194 -10 -5 -13 11 -13 72 l0 80
103 64 c138 87 307 191 647 398 316 192 429 261 665 405 88 55 207 128 265
163 228 139 250 158 241 202 -4 22 -32 50 -50 50 -9 0 -108 -58 -221 -128
-113 -70 -270 -168 -350 -216 -80 -49 -215 -132 -300 -184 -85 -52 -279 -170
-430 -262 -396 -240 -429 -260 -494 -301 -33 -21 -63 -36 -68 -33 -10 6 -10
105 0 119 7 11 54 40 492 305 715 434 811 492 1235 753 77 47 145 86 151 86 6
1 29 -24 51 -54z m-7332 -291 c94 -56 231 -138 305 -181 101 -60 136 -85 138
-102 8 -53 -4 -52 -100 7 -51 31 -192 114 -313 183 l-220 126 -3 37 c-2 27 0
37 10 34 7 -1 90 -49 183 -104z m-129 -146 c3 -5 3 -20 0 -33 l-6 -24 -35 20
c-29 17 -35 27 -35 55 l0 33 35 -20 c19 -12 38 -25 41 -31z m291 -166 c72 -41
83 -51 83 -74 0 -16 -2 -28 -5 -28 -3 0 -50 26 -104 58 -55 31 -113 65 -130
74 -24 13 -31 24 -31 48 l0 30 53 -30 c28 -17 89 -52 134 -78z m-318 -7 c23
-11 27 -19 24 -40 -6 -29 -7 -29 -36 -14 -27 14 -37 28 -37 52 0 21 12 22 49
2z m4993 -73 c51 -32 117 -71 145 -88 47 -25 53 -33 53 -61 l0 -32 -53 35
c-29 19 -95 60 -147 91 -79 48 -96 63 -98 86 -2 15 -1 27 2 27 3 0 47 -26 98
-58z m-4792 -73 l0 -40 -30 16 c-26 13 -30 21 -30 56 l0 40 30 -16 c26 -13 30
-21 30 -56z m358 11 c25 -15 32 -27 32 -50 0 -16 -2 -30 -4 -30 -3 0 -21 9
-40 21 -28 16 -36 27 -36 50 0 34 5 35 48 9z m-563 -56 c17 -11 25 -25 25 -46
l0 -30 -32 21 c-21 12 -34 30 -36 46 -4 29 9 32 43 9z m402 -52 c9 -39 -11
-48 -51 -22 -39 23 -39 24 -30 57 6 21 7 21 40 5 20 -9 37 -26 41 -40z m482
-54 c173 -106 548 -340 671 -418 41 -26 161 -101 265 -167 105 -66 289 -183
410 -260 121 -77 279 -177 350 -223 72 -45 171 -108 220 -140 50 -31 160 -101
245 -155 267 -169 614 -394 644 -418 l29 -23 -9 -76 -9 -75 -125 79 c-209 132
-226 137 -250 78 -16 -37 1 -67 57 -101 131 -79 301 -185 317 -198 15 -13 17
-26 14 -73 -2 -32 -7 -60 -9 -63 -5 -5 -209 112 -237 135 -6 6 -12 21 -12 35
0 24 -44 69 -80 80 -26 8 -50 -11 -50 -40 0 -12 -2 -24 -6 -27 -10 -10 -83 37
-88 57 -3 11 -6 107 -6 213 0 114 -4 201 -10 213 -12 21 -50 25 -68 7 -9 -9
-12 -95 -12 -326 l0 -314 -32 21 -33 20 -5 349 c-5 371 -7 382 -54 382 -46 0
-46 -1 -46 -435 0 -227 -3 -414 -6 -418 -4 -3 -19 0 -34 8 l-27 14 -5 450 c-4
420 -5 452 -23 471 -24 26 -50 25 -69 -2 -14 -19 -16 -75 -16 -408 0 -212 -4
-391 -9 -398 -6 -10 -13 -11 -33 -2 l-25 12 -5 444 c-5 407 -7 447 -23 464
-10 11 -26 20 -35 20 -37 0 -40 -19 -40 -220 0 -107 -4 -201 -9 -209 -11 -16
-45 0 -61 29 -6 11 -10 110 -10 244 0 213 -1 227 -20 246 -24 24 -57 26 -82 3
-17 -15 -18 -38 -18 -320 0 -320 0 -321 -45 -287 -19 14 -20 28 -23 352 -1
185 -4 347 -7 358 -6 28 -38 36 -64 17 -20 -13 -21 -23 -21 -207 0 -106 -3
-196 -6 -199 -4 -4 -19 1 -34 10 l-28 16 -4 233 c-3 211 -5 234 -22 253 -25
27 -51 27 -70 -1 -14 -19 -16 -68 -16 -335 0 -172 -2 -313 -5 -313 -4 0 -19 7
-35 15 l-30 16 0 347 c0 298 -2 351 -16 370 -18 26 -41 28 -66 5 -16 -14 -18
-35 -19 -212 0 -108 -3 -203 -7 -212 -6 -14 -37 1 -187 92 -99 60 -235 141
-302 180 l-123 71 0 39 c0 22 3 39 7 39 8 0 187 -108 368 -222 76 -48 146 -88
154 -88 43 0 70 82 36 110 -12 10 -15 40 -15 147 0 143 -7 173 -43 173 -40 0
-47 -18 -47 -119 0 -131 -4 -134 -82 -84 -34 23 -110 69 -168 103 -58 35 -126
77 -152 93 l-48 30 0 129 0 128 -41 30 c-22 16 -133 84 -246 152 -112 68 -217
134 -233 148 -27 23 -28 29 -23 78 3 28 8 52 10 52 3 0 58 -32 122 -72z m4511
-56 c0 -35 -1 -35 -52 2 -19 13 -28 29 -28 47 l0 27 40 -21 c34 -19 40 -27 40
-55z m-5208 51 c10 -9 18 -29 18 -45 0 -28 0 -28 -29 -13 -37 19 -44 30 -36
55 8 24 22 25 47 3z m378 -28 c25 -13 30 -22 30 -50 0 -40 -7 -43 -44 -14 -17
14 -26 30 -26 50 0 34 1 34 40 14z m-569 -62 c21 -13 29 -25 29 -46 l0 -29
-32 19 c-22 13 -34 28 -36 46 -4 32 0 33 39 10z m377 -13 c30 -18 43 -52 25
-63 -15 -9 -83 43 -83 63 0 25 16 25 58 0z m15 -210 c183 -110 212 -130 215
-153 4 -30 -12 -35 -37 -14 -15 13 -111 71 -328 197 -88 52 -93 56 -93 88 0
30 2 33 16 21 8 -7 111 -70 227 -139z m205 47 c4 -32 -1 -33 -39 -6 -19 13
-29 29 -29 46 l0 25 33 -19 c21 -13 33 -28 35 -46z m258 15 c45 -26 131 -78
193 -117 l111 -70 0 -172 c0 -95 -3 -173 -8 -173 -4 0 -18 7 -30 16 -21 14
-22 23 -22 133 0 105 -2 121 -21 145 -22 28 -60 34 -78 13 -12 -15 -18 -119
-20 -315 l-1 -123 -30 18 -30 17 0 246 c0 273 -4 290 -60 290 -42 0 -50 -23
-50 -139 0 -56 -3 -101 -8 -101 -4 0 -18 7 -30 16 -22 15 -23 20 -22 190 1
125 5 174 13 174 7 0 48 -21 93 -48z m-743 -102 c95 -58 110 -71 105 -94 -2
-11 -35 3 -128 58 -109 63 -125 76 -128 100 l-4 29 34 -20 c18 -11 72 -44 121
-73z m-75 -170 c4 -35 4 -35 -36 -14 -40 19 -45 29 -38 60 l7 25 32 -20 c23
-14 33 -29 35 -51z m396 -25 c9 -9 16 -23 16 -30 0 -10 -17 -4 -55 18 -35 20
-55 38 -55 49 0 17 2 17 39 -1 21 -11 46 -28 55 -36z m-253 -32 c21 -12 29
-25 29 -45 l0 -27 -34 20 c-35 20 -51 44 -40 60 7 12 12 12 45 -8z m422 -51
c15 -13 25 -52 12 -52 -17 0 -56 26 -60 41 -13 40 8 45 48 11z m-573 -82 c0
-28 -1 -29 -30 -18 -18 6 -32 19 -36 33 -9 37 3 47 37 30 22 -12 29 -23 29
-45z m5138 41 l22 -19 0 -355 0 -354 -37 -25 c-21 -14 -168 -105 -328 -202
-159 -98 -324 -199 -365 -226 -315 -201 -593 -371 -597 -366 -3 3 -8 27 -10
53 -4 37 -1 53 13 70 11 12 89 64 174 116 201 122 277 169 495 307 99 63 207
130 240 150 33 21 67 49 75 64 13 23 13 29 0 54 -27 47 -53 40 -195 -49 -125
-79 -290 -183 -632 -397 -89 -56 -164 -102 -167 -102 -3 0 -6 36 -6 80 l0 80
108 70 c173 112 181 118 188 145 9 35 -19 75 -52 75 -22 0 -60 -22 -221 -127
l-23 -15 0 85 c0 73 3 89 19 104 11 10 105 72 208 137 103 66 271 172 373 236
102 65 253 159 335 210 83 51 195 121 250 156 55 35 102 63 105 63 3 0 15 -8
28 -18z m-4758 -66 l0 -35 -40 26 c-31 21 -40 33 -40 56 l0 28 40 -20 c35 -18
40 -25 40 -55z m400 -17 c0 -40 -8 -45 -41 -28 -14 8 -19 21 -19 56 l0 45 30
-18 c25 -14 30 -24 30 -55z m-629 -25 c19 -11 29 -26 29 -40 0 -23 0 -23 -32
-7 -35 18 -48 31 -48 52 0 17 17 15 51 -5z m441 -47 c8 -12 11 -66 3 -66 -2 0
-16 5 -30 12 -20 9 -25 18 -25 50 0 37 1 38 23 27 12 -7 25 -17 29 -23z m6991
-144 c-10 -7 -72 -46 -138 -86 -195 -118 -824 -499 -936 -567 -57 -34 -153
-92 -214 -129 -109 -66 -383 -230 -790 -472 -190 -113 -704 -424 -1213 -731
-105 -65 -194 -117 -197 -117 -3 0 -5 15 -5 33 0 32 5 36 243 181 133 82 287
177 342 211 96 59 457 283 596 369 37 23 80 48 95 57 31 18 176 108 319 199
50 31 284 178 520 325 433 270 505 315 780 485 83 51 184 114 225 140 41 26
136 84 210 130 74 46 144 88 155 95 19 12 20 10 23 -48 2 -50 0 -64 -15 -75z
m-7600 99 c18 -10 27 -22 27 -39 0 -19 -4 -23 -17 -17 -10 4 -26 10 -35 12
-12 4 -18 15 -18 35 0 16 3 28 8 26 4 -2 19 -10 35 -17z m362 -14 c29 -16 41
-30 43 -50 4 -33 1 -33 -54 -1 -33 19 -44 32 -44 50 0 29 5 30 55 1z m773 -20
c15 -12 16 -87 1 -87 -32 0 -49 22 -49 65 0 38 3 43 18 38 9 -3 23 -10 30 -16z
m-357 3 c19 -11 26 -51 13 -83 -5 -13 -9 -13 -35 0 -25 12 -29 20 -29 54 0 42
13 49 51 29z m-609 -69 c15 -8 30 -21 33 -29 10 -27 -11 -35 -44 -18 -22 12
-31 24 -31 42 0 14 3 24 8 22 4 -2 19 -10 34 -17z m431 -39 c10 -9 17 -29 17
-49 0 -37 0 -37 -35 -21 -21 9 -25 18 -25 55 0 46 4 48 43 15z m367 -48 l0
-45 -30 16 c-27 14 -30 21 -30 61 l0 45 30 -16 c27 -14 30 -21 30 -61z m357
44 c16 -15 23 -33 23 -60 0 -41 -5 -44 -45 -26 -21 9 -25 18 -25 53 0 60 10
68 47 33z m-927 -108 c0 -17 -2 -30 -4 -30 -3 0 -21 9 -40 21 -28 16 -36 27
-36 50 l0 29 40 -20 c33 -17 40 -26 40 -50z m397 -28 c-4 -40 -10 -45 -44 -29
-23 10 -30 46 -17 81 5 14 9 14 35 1 25 -14 28 -20 26 -53z m337 52 c12 -4 16
-20 16 -55 0 -54 1 -53 -34 -38 -27 13 -36 35 -29 73 5 26 18 31 47 20z m370
-19 c18 -17 26 -34 26 -58 0 -44 -6 -48 -41 -29 -25 15 -29 23 -29 65 0 26 4
47 9 47 4 0 20 -11 35 -25z m-888 -111 c10 -38 -1 -55 -28 -45 -23 8 -34 40
-24 66 8 21 45 6 52 -21z m338 30 c12 -4 16 -20 16 -55 0 -27 -2 -49 -5 -49
-3 0 -17 7 -30 16 -20 13 -25 25 -25 55 0 40 9 46 44 33z m756 -75 c0 -48 -1
-50 -22 -44 -33 10 -48 34 -48 75 0 47 6 52 41 34 26 -13 29 -20 29 -65z
m-392 65 c19 -6 22 -13 22 -56 0 -47 -1 -49 -22 -43 -39 12 -48 27 -41 68 6
40 6 40 41 31z m-553 -86 c21 -9 25 -18 25 -55 l0 -44 -30 16 c-26 13 -30 21
-30 55 0 45 -1 44 35 28z m366 -8 c14 -8 19 -21 19 -55 0 -46 -7 -53 -41 -35
-14 8 -19 21 -19 55 0 46 7 53 41 35z m389 -70 c0 -55 1 -55 -34 -39 -31 15
-36 26 -29 77 l6 41 28 -15 c26 -13 29 -20 29 -64z m343 37 c23 -18 28 -29 25
-58 l-3 -36 -32 14 c-30 12 -33 17 -33 58 0 25 3 45 8 45 4 0 20 -10 35 -23z
m-912 -67 c14 -8 19 -21 19 -50 0 -45 1 -44 -34 -30 -22 8 -26 16 -26 50 0 41
8 47 41 30z m389 -67 c0 -48 -14 -55 -48 -25 -15 13 -18 26 -15 58 l5 42 29
-17 c25 -14 29 -22 29 -58z m363 20 c5 -17 7 -43 3 -57 -6 -26 -7 -26 -36 -11
-27 14 -30 21 -30 61 0 43 1 45 27 42 21 -2 29 -10 36 -35z m-578 -55 c21 -9
25 -18 25 -55 0 -48 1 -47 -34 -33 -23 8 -26 15 -26 55 0 50 -1 49 35 33z
m1115 -73 c0 -50 1 -49 -35 -33 -22 10 -25 17 -25 60 l0 49 30 -16 c27 -14 30
-21 30 -60z m-746 55 c23 -8 26 -15 26 -60 l0 -51 -30 16 c-27 14 -30 21 -30
60 0 25 2 45 4 45 3 0 16 -4 30 -10z m394 -54 c4 -48 -7 -60 -41 -47 -24 9
-27 16 -27 61 l0 50 33 -13 c27 -11 32 -19 35 -51z m-574 -36 c23 -8 26 -15
26 -55 0 -50 1 -49 -35 -33 -21 9 -25 18 -25 55 0 48 -1 47 34 33z m746 -75
c0 -30 -3 -55 -6 -55 -18 0 -62 42 -59 58 2 9 4 32 4 50 l1 33 30 -16 c28 -14
30 -20 30 -70z m-374 57 c6 -4 14 -28 18 -54 8 -52 -2 -60 -45 -38 -27 15 -28
100 -1 100 9 0 22 -4 28 -8z m554 -156 l0 -54 -30 11 c-29 11 -30 14 -30 69
l0 59 30 -16 c28 -14 30 -20 30 -69z m-746 64 c22 -8 26 -16 26 -50 0 -41 -9
-48 -44 -34 -11 4 -16 19 -16 50 0 49 -1 48 34 34z m367 -10 c15 -8 19 -21 19
-59 l0 -49 -30 11 c-34 13 -44 35 -35 77 7 32 15 36 46 20z m704 -32 c18 -8
25 -19 25 -40 0 -50 -41 -32 -55 25 -8 31 -6 32 30 15z m-167 -122 c3 -58 -1
-64 -30 -42 -13 10 -18 27 -18 64 0 49 1 51 23 43 19 -7 22 -17 25 -65z m-714
58 c12 -4 16 -20 16 -56 0 -47 -1 -49 -22 -42 -31 9 -38 22 -38 67 0 38 9 44
44 31z m360 -10 c12 -5 16 -20 16 -60 l0 -54 -32 13 c-20 8 -33 20 -32 30 3
69 5 77 18 77 8 0 21 -3 30 -6z m-164 -151 c0 -45 -1 -46 -37 -37 -20 5 -23
13 -23 54 l0 48 30 -11 c27 -10 30 -16 30 -54z m360 -7 c0 -53 -6 -59 -39 -42
-24 13 -26 18 -23 65 l4 51 29 -15 c25 -14 29 -21 29 -59z m338 12 c2 -35 -1
-48 -10 -48 -24 0 -35 15 -42 58 -6 43 -6 43 21 40 26 -3 28 -7 31 -50z m-178
-114 c0 -53 0 -54 -25 -42 -22 10 -25 17 -25 64 0 53 0 54 25 42 22 -10 25
-17 25 -64z m-362 50 c39 -27 25 -103 -17 -89 -18 5 -21 14 -21 56 0 53 4 57
38 33z m202 -143 c0 -50 -8 -61 -36 -49 -21 10 -24 18 -24 60 l0 49 30 -16
c23 -12 30 -22 30 -44z m320 29 c22 -22 25 -46 10 -70 -17 -26 -45 2 -48 49
-3 46 7 52 38 21z m740 -65 c0 -32 -4 -45 -14 -45 -28 0 -46 30 -46 76 l0 45
30 -16 c27 -14 30 -21 30 -60z m219 -42 c42 -26 100 -64 129 -85 l52 -39 0
-65 0 -65 -39 23 c-28 16 -41 31 -47 57 -6 23 -21 43 -43 58 -44 30 -50 28
-78 -25 -1 -2 -15 4 -32 14 -30 18 -31 20 -31 96 0 43 3 78 6 78 4 0 41 -21
83 -47z m-1119 -35 c0 -26 -4 -48 -10 -48 -18 0 -52 41 -46 57 3 8 6 25 6 39
0 22 2 23 25 12 22 -10 25 -18 25 -60z m351 32 c14 -8 19 -21 19 -50 0 -42 -8
-47 -41 -30 -14 8 -19 21 -19 50 0 42 8 47 41 30z m357 -16 c23 -16 32 -77 13
-88 -29 -19 -60 25 -53 75 5 33 9 35 40 13z m-538 -109 c0 -30 -4 -45 -13 -45
-22 0 -37 23 -37 57 0 29 3 33 25 33 23 0 25 -4 25 -45z m380 -32 c0 -48 1
-47 -34 -33 -20 7 -26 17 -26 39 0 50 8 61 36 49 20 -9 24 -18 24 -55z m330
37 c9 -6 14 -24 14 -50 -2 -49 -6 -55 -33 -40 -17 8 -21 20 -21 55 0 46 10 54
40 35z m-522 -83 c17 -14 16 -77 -2 -77 -36 0 -46 12 -46 56 0 37 3 42 18 37
9 -3 23 -10 30 -16z m352 -15 c19 -16 22 -24 16 -55 -8 -41 -9 -42 -37 -27
-14 8 -19 21 -19 55 0 50 7 54 40 27z m370 -88 c0 -43 0 -43 -25 -32 -22 10
-25 18 -25 60 l0 48 25 -16 c20 -13 25 -24 25 -60z m-549 6 c14 -8 19 -21 19
-55 0 -49 -5 -53 -38 -29 -15 10 -22 25 -22 48 0 46 8 53 41 36z m345 -28 c6
-4 15 -26 19 -49 6 -38 5 -43 -12 -43 -29 0 -43 20 -43 62 0 37 11 47 36 30z
m412 -100 c2 -23 0 -42 -3 -42 -3 0 -19 10 -35 22 -24 18 -30 29 -30 61 l0 39
33 -19 c27 -16 32 -26 35 -61z m-584 22 c12 -4 16 -20 16 -55 0 -49 -4 -54
-34 -43 -12 4 -16 20 -16 55 0 49 4 54 34 43z m360 -50 c16 -6 24 -84 8 -84
-23 0 -52 34 -52 61 0 29 12 35 44 23z m-190 -70 c11 -4 16 -19 16 -50 0 -48
-2 -49 -31 -34 -14 8 -19 21 -19 50 0 40 5 45 34 34z m416 -105 c0 -21 -3 -39
-6 -39 -3 0 -19 9 -35 21 -24 16 -29 28 -29 59 l0 39 35 -20 c30 -18 35 -26
35 -60z m-229 -19 c24 -13 28 -90 5 -90 -25 0 -46 30 -46 66 0 36 9 41 41 24z
m229 -182 c0 -43 -1 -43 -39 -23 -28 14 -40 43 -33 77 3 16 6 16 38 1 30 -15
34 -21 34 -55z"/>
<path d="M3686 8464 c-24 -24 -20 -53 10 -65 49 -18 89 47 45 71 -27 14 -37
13 -55 -6z"/>
<path d="M3992 8468 c-17 -17 -15 -32 6 -51 24 -22 45 -21 66 2 14 15 15 24 6
40 -12 24 -58 29 -78 9z"/>
<path d="M4169 8369 c-24 -24 -21 -39 14 -59 23 -13 28 -13 46 4 27 24 26 41
-1 60 -29 21 -34 20 -59 -5z"/>
<path d="M3847 8362 c-24 -26 -21 -46 7 -61 52 -28 100 25 56 61 -28 23 -43
23 -63 0z"/>
<path d="M4347 8272 c-22 -24 -21 -35 1 -55 33 -30 82 -16 82 24 0 18 -35 49
-56 49 -6 0 -18 -8 -27 -18z"/>
<path d="M4032 8264 c-31 -21 -25 -56 11 -68 23 -8 31 -6 49 12 l22 22 -24 25
c-28 30 -29 30 -58 9z"/>
<path d="M3702 8254 c-27 -18 -28 -36 -4 -57 26 -24 58 -21 77 6 15 21 14 23
-10 45 -31 26 -34 27 -63 6z"/>
<path d="M4214 8170 c-33 -13 -39 -42 -14 -62 41 -33 85 -14 78 33 -4 26 -34
40 -64 29z"/>
<path d="M3876 8145 c-12 -32 -6 -46 30 -62 36 -17 36 -17 55 6 17 21 18 26 6
45 -18 27 -82 35 -91 11z"/>
<path d="M3243 7838 c-39 -51 -20 -81 90 -138 94 -49 113 -49 131 3 12 34 2
46 -93 102 -80 46 -111 54 -128 33z"/>
<path d="M2941 7504 c-25 -31 -25 -35 -8 -55 33 -40 46 -43 72 -19 31 29 32
64 3 84 -31 22 -43 20 -67 -10z"/>
<path d="M3110 7420 c-36 -36 -20 -84 34 -104 25 -9 66 29 66 60 0 23 -42 64
-66 64 -8 0 -23 -9 -34 -20z"/>
<path d="M3012 7238 c-37 -47 -17 -89 60 -124 l40 -18 24 27 c13 16 24 34 24
41 0 16 -36 49 -77 70 -38 19 -57 20 -71 4z"/>
<path d="M5950 8010 c-18 -18 -20 -33 -20 -185 0 -152 2 -167 20 -185 25 -25
31 -25 64 1 l26 20 0 169 c0 163 -1 169 -22 184 -30 21 -44 20 -68 -4z"/>
<path d="M5671 7974 c-24 -30 -26 -53 -8 -76 22 -28 47 -29 73 -3 29 29 31 58
4 85 -27 27 -44 25 -69 -6z"/>
<path d="M6211 7974 c-16 -21 -20 -38 -18 -100 2 -76 11 -94 47 -94 39 1 55
29 58 104 4 65 1 77 -17 95 -28 28 -45 27 -70 -5z"/>
<path d="M5427 7862 c-20 -22 -22 -73 -5 -90 31 -31 88 1 88 51 0 50 -51 74
-83 39z"/>
<path d="M6476 7824 c-19 -18 -21 -75 -4 -92 18 -18 45 -15 68 8 22 22 27 69
8 88 -17 17 -54 15 -72 -4z"/>
<path d="M5672 7768 c-8 -8 -12 -58 -12 -158 0 -154 4 -170 46 -170 48 0 54
20 54 174 0 152 -4 166 -50 166 -14 0 -31 -5 -38 -12z"/>
<path d="M5176 7721 c-40 -44 10 -119 58 -87 33 21 41 42 30 73 -12 36 -61 44
-88 14z"/>
<path d="M6219 7672 c-39 -33 -24 -112 22 -112 49 0 82 97 40 120 -27 14 -35
13 -62 -8z"/>
<path d="M5430 7650 c-19 -19 -20 -31 -18 -182 3 -134 6 -162 19 -171 23 -14
67 0 74 24 4 11 7 88 7 171 0 135 -2 153 -18 165 -25 18 -41 16 -64 -7z"/>
<path d="M6686 7634 c-20 -20 -21 -58 -1 -74 25 -21 65 3 65 38 0 48 -34 67
-64 36z"/>
<path d="M6482 7563 c-32 -27 -37 -65 -13 -94 19 -23 21 -23 47 -9 40 22 53
49 42 88 -10 37 -42 44 -76 15z"/>
<path d="M5182 7508 c-8 -8 -12 -60 -12 -170 0 -145 1 -158 19 -168 28 -14 38
-13 61 10 18 18 20 33 20 161 0 77 -5 149 -10 160 -12 22 -59 26 -78 7z"/>
<path d="M5946 7498 c-9 -12 -16 -29 -16 -38 0 -27 30 -60 55 -60 43 0 74 77
43 108 -20 20 -65 14 -82 -10z"/>
<path d="M6700 7420 c-26 -26 -25 -52 1 -76 18 -17 23 -17 46 -4 31 18 43 47
32 78 -11 28 -51 30 -79 2z"/>
<path d="M6218 7403 c-26 -30 -31 -62 -14 -88 20 -30 35 -31 70 -4 28 22 36
75 14 97 -17 17 -53 15 -70 -5z"/>
<path d="M4582 7388 c-17 -17 -15 -54 4 -72 19 -20 24 -20 52 0 39 27 23 84
-23 84 -12 0 -26 -5 -33 -12z"/>
<path d="M5676 7338 c-22 -31 -20 -64 4 -88 26 -26 31 -25 64 5 27 25 33 54
16 86 -15 27 -64 25 -84 -3z"/>
<path d="M6482 7313 c-31 -27 -37 -65 -14 -93 17 -21 24 -23 47 -15 14 6 34
22 43 38 15 25 15 30 2 55 -19 33 -49 39 -78 15z"/>
<path d="M5958 7247 c-26 -20 -33 -63 -14 -92 20 -30 35 -31 70 -4 28 22 36
75 14 97 -16 16 -48 15 -70 -1z"/>
<path d="M5426 7178 c-46 -65 19 -133 74 -78 22 22 26 51 10 81 -15 27 -64 25
-84 -3z"/>
<path d="M4576 7158 c-9 -12 -16 -28 -16 -34 0 -17 34 -44 56 -44 43 0 59 53
26 83 -25 23 -48 21 -66 -5z"/>
<path d="M6211 7134 c-26 -33 -27 -66 -3 -87 24 -22 34 -21 66 4 26 20 34 57
20 93 -10 26 -60 20 -83 -10z"/>
<path d="M5680 7080 c-11 -11 -20 -31 -20 -45 0 -24 31 -65 49 -65 17 0 61 50
61 70 0 57 -50 80 -90 40z"/>
<path d="M4332 7068 c-27 -27 0 -88 40 -88 19 0 48 31 48 52 0 36 -62 62 -88
36z"/>
<path d="M5185 7035 c-30 -29 -32 -58 -5 -85 26 -26 42 -25 68 3 29 30 28 71
0 91 -30 21 -35 20 -63 -9z"/>
<path d="M5955 6975 c-26 -25 -29 -35 -19 -73 16 -58 104 -22 104 43 0 58 -43
73 -85 30z"/>
<path d="M5432 6930 c-39 -37 -21 -110 27 -110 23 0 61 41 61 66 0 27 -28 64
-49 64 -9 0 -27 -9 -39 -20z"/>
<path d="M4571 6914 c-10 -22 -9 -31 4 -50 19 -29 46 -31 70 -4 28 31 10 74
-31 78 -25 2 -33 -2 -43 -24z"/>
<path d="M4141 6916 c-7 -8 -11 -25 -9 -38 2 -18 9 -23 33 -23 28 0 30 3 30
35 0 28 -4 36 -21 38 -11 2 -26 -4 -33 -12z"/>
<path d="M4338 6838 c-28 -23 -31 -54 -7 -77 13 -12 30 -21 39 -21 20 0 50 31
50 51 0 38 -54 69 -82 47z"/>
<path d="M5686 6829 c-42 -33 -30 -109 18 -109 51 0 86 79 50 114 -21 21 -36
20 -68 -5z"/>
<path d="M6772 6794 c-29 -20 -28 -50 3 -70 23 -15 27 -15 50 0 29 19 32 47 9
70 -19 20 -34 20 -62 0z"/>
<path d="M5181 6774 c-12 -15 -21 -34 -21 -43 0 -25 29 -61 49 -61 44 0 80 87
49 118 -20 20 -55 13 -77 -14z"/>
<path d="M6447 6787 c-28 -20 -19 -59 17 -72 24 -8 31 -6 47 13 36 45 -17 94
-64 59z"/>
<path d="M4570 6691 c-15 -29 -12 -46 9 -65 46 -41 107 18 66 64 -23 25 -61
26 -75 1z"/>
<path d="M4112 6688 c-7 -7 -12 -21 -12 -33 0 -12 5 -26 12 -33 7 -7 21 -12
33 -12 12 0 26 5 33 12 7 7 12 21 12 33 0 12 -5 26 -12 33 -7 7 -21 12 -33 12
-12 0 -26 -5 -33 -12z"/>
<path d="M6950 6682 c-18 -14 -21 -25 -16 -45 8 -35 49 -46 76 -22 25 23 25
40 0 65 -25 25 -32 25 -60 2z"/>
<path d="M5426 6668 c-22 -30 -20 -71 3 -92 47 -43 124 57 79 102 -20 20 -65
14 -82 -10z"/>
<path d="M6262 6664 c-31 -21 -29 -61 3 -76 51 -23 87 47 40 78 -18 12 -24 11
-43 -2z"/>
<path d="M6598 6655 c-12 -28 0 -50 34 -61 23 -7 58 20 58 46 0 44 -73 57 -92
15z"/>
<path d="M6460 6573 c-43 -15 -52 -64 -14 -82 55 -25 100 42 49 74 -11 7 -27
10 -35 8z"/>
<path d="M6772 6558 c-17 -17 -15 -42 6 -61 24 -22 45 -21 65 1 32 35 14 72
-33 72 -14 0 -31 -5 -38 -12z"/>
<path d="M5186 6534 c-25 -25 -30 -61 -12 -89 20 -30 35 -31 70 -4 28 22 36
75 14 97 -17 17 -54 15 -72 -4z"/>
<path d="M6610 6440 c-25 -25 -25 -42 0 -65 27 -24 68 -13 76 22 5 20 2 31
-16 45 -28 23 -35 23 -60 -2z"/>
<path d="M4118 6426 c-25 -18 -23 -63 3 -76 16 -9 26 -8 45 5 30 19 31 49 2
69 -27 19 -28 19 -50 2z"/>
<path d="M4112 6188 c-17 -17 -15 -65 4 -72 32 -12 55 -6 66 19 9 21 8 28 -7
45 -20 23 -45 26 -63 8z"/>
<path d="M4316 6051 c-26 -29 -16 -62 29 -92 55 -38 79 -43 99 -23 30 29 16
66 -38 102 -56 37 -67 39 -90 13z"/>
<path d="M4116 5954 c-30 -30 -13 -74 29 -74 43 0 59 44 27 73 -23 21 -36 21
-56 1z"/>
<path d="M4566 5894 c-17 -45 4 -83 61 -113 33 -17 51 -13 68 13 21 31 9 56
-43 91 -42 29 -77 32 -86 9z"/>
<path d="M4311 5832 c-24 -45 -4 -80 66 -116 42 -21 60 -20 73 3 19 37 11 59
-33 90 -61 41 -92 48 -106 23z"/>
<path d="M1908 5744 c-11 -22 -10 -28 7 -40 28 -21 53 -17 71 11 21 32 5 55
-37 55 -22 0 -32 -7 -41 -26z"/>
<path d="M4112 5728 c-19 -19 -14 -56 8 -68 43 -23 83 17 60 60 -12 22 -49 27
-68 8z"/>
<path d="M2080 5678 c-43 -46 -20 -83 85 -137 33 -17 89 -49 124 -71 36 -22
72 -40 82 -40 21 0 59 45 59 70 0 23 -21 40 -120 95 -47 27 -107 61 -135 76
-60 35 -69 35 -95 7z"/>
<path d="M4573 5678 c-26 -34 -23 -50 16 -89 57 -57 111 -51 111 13 0 21 -10
35 -42 58 -44 32 -70 37 -85 18z"/>
<path d="M1746 5638 c-15 -21 -15 -24 9 -48 27 -26 47 -23 69 13 28 43 -48 78
-78 35z"/>
<path d="M4305 5596 c-22 -33 -8 -57 49 -91 55 -32 83 -32 98 1 15 32 5 49
-48 86 -49 34 -79 35 -99 4z"/>
<path d="M3942 5578 c-21 -21 -14 -57 13 -70 34 -15 57 5 53 46 -2 25 -8 32
-28 34 -14 2 -31 -3 -38 -10z"/>
<path d="M1917 5542 c-24 -26 -21 -49 7 -67 49 -32 101 31 56 67 -28 23 -43
23 -63 0z"/>
<path d="M1603 5537 c-30 -13 -37 -36 -17 -58 33 -37 89 -15 82 32 -4 27 -35
40 -65 26z"/>
<path d="M4109 5476 c-23 -49 22 -90 62 -57 20 16 22 23 14 47 -14 40 -60 46
-76 10z"/>
<path d="M2090 5440 c-23 -23 -24 -31 -7 -52 22 -27 49 -37 74 -25 36 16 40
47 9 74 -33 28 -50 29 -76 3z"/>
<path d="M4565 5445 c-3 -8 -7 -21 -9 -29 -7 -22 32 -66 73 -83 33 -14 36 -14
53 7 24 30 23 52 -4 77 -48 43 -104 57 -113 28z"/>
<path d="M1757 5422 c-24 -26 -21 -46 9 -62 27 -15 49 -8 68 23 26 41 -44 76
-77 39z"/>
<path d="M1440 5393 l-21 -28 21 -17 c39 -32 80 -17 80 29 0 21 -25 43 -49 43
-5 0 -19 -12 -31 -27z"/>
<path d="M3940 5341 c-15 -29 -12 -49 9 -61 29 -15 39 -13 56 14 13 19 14 29
5 45 -14 27 -56 28 -70 2z"/>
<path d="M1931 5316 c-27 -29 -26 -42 4 -62 45 -29 99 11 70 53 -22 31 -50 34
-74 9z"/>
<path d="M1622 5313 c-7 -2 -17 -14 -23 -25 -23 -43 50 -78 84 -40 23 25 21
38 -5 56 -23 16 -34 18 -56 9z"/>
<path d="M1310 5256 c-17 -32 -7 -54 26 -62 46 -12 76 54 35 76 -30 16 -47 12
-61 -14z"/>
<path d="M1782 5198 c-19 -19 -14 -56 9 -68 28 -16 66 -5 74 21 13 41 -52 78
-83 47z"/>
<path d="M1473 5154 c-17 -26 -16 -27 11 -50 37 -33 62 -30 82 8 16 31 16 32
-6 50 -32 26 -66 23 -87 -8z"/>
<path d="M3936 5115 c-18 -49 14 -87 55 -65 15 9 19 19 17 43 -3 28 -7 32 -34
35 -22 2 -33 -2 -38 -13z"/>
<path d="M1244 5103 c-6 -5 -16 -17 -22 -29 -19 -37 7 -64 138 -142 347 -207
481 -282 503 -282 28 0 43 14 52 51 9 35 -7 46 -245 185 -102 59 -225 131
-275 161 -90 55 -131 70 -151 56z"/>
<path d="M1652 5054 l-17 -36 30 -24 c45 -37 72 -40 95 -13 29 35 24 55 -17
84 -51 34 -70 32 -91 -11z"/>
<path d="M4108 4974 c-14 -31 -1 -57 31 -62 28 -4 51 14 51 42 0 50 -62 65
-82 20z"/>
<path d="M1880 4970 c-31 -31 -25 -56 22 -90 48 -35 68 -37 92 -11 27 30 17
71 -23 98 -42 28 -65 29 -91 3z"/>
<path d="M4293 4888 c-24 -32 -22 -49 10 -82 37 -39 360 -236 387 -236 19 0
50 40 50 64 0 22 -71 73 -242 177 -142 86 -185 102 -205 77z"/>
<path d="M2111 4844 c-31 -39 -27 -56 19 -87 32 -22 45 -21 70 5 26 29 25 59
-3 86 -31 29 -61 28 -86 -4z"/>
<path d="M2373 4795 c-27 -19 -30 -55 -5 -83 17 -21 114 -81 552 -347 129 -79
271 -165 315 -192 44 -27 211 -130 370 -228 160 -98 373 -230 475 -293 102
-63 235 -145 295 -182 61 -37 204 -127 320 -199 115 -72 219 -131 230 -131 11
0 83 39 160 86 436 269 562 349 583 367 30 27 25 64 -10 90 l-27 20 -148 -90
c-81 -49 -241 -147 -355 -216 l-206 -127 -114 73 c-62 41 -165 106 -228 144
-63 39 -180 111 -260 160 -852 525 -1154 710 -1699 1042 -102 61 -194 114
-205 117 -12 2 -31 -2 -43 -11z"/>
<path d="M4112 4748 c-17 -17 -15 -53 3 -68 20 -17 62 -5 70 20 14 44 -41 80
-73 48z"/>
<path d="M2006 4658 c-22 -32 -20 -64 6 -82 31 -22 54 -20 72 6 21 30 20 61
-2 81 -26 23 -58 21 -76 -5z"/>
<path d="M2217 4592 c-24 -26 -21 -65 6 -89 12 -11 56 -40 97 -65 125 -75 411
-250 1145 -701 385 -236 810 -497 945 -580 135 -82 291 -178 347 -213 127 -79
144 -84 172 -48 11 15 21 35 21 45 0 30 54 -5 -825 534 -231 142 -508 312
-615 378 -243 149 -701 429 -1008 616 -128 77 -241 141 -251 141 -10 0 -25 -8
-34 -18z"/>
<path d="M4112 4508 c-19 -19 -14 -56 8 -68 26 -14 57 -4 65 20 14 44 -41 80
-73 48z"/>
<path d="M4116 4274 c-22 -21 -20 -47 4 -69 18 -17 21 -17 45 -1 14 9 25 25
25 36 0 22 -25 50 -45 50 -7 0 -21 -7 -29 -16z"/>
<path d="M4322 4142 c-7 -2 -17 -15 -23 -29 -12 -31 8 -62 60 -91 63 -36 101
-25 101 29 0 22 -10 33 -47 56 -58 35 -74 41 -91 35z"/>
<path d="M5389 4067 c-19 -12 -38 -35 -43 -50 -9 -23 -6 -31 16 -53 25 -25 26
-25 57 -9 48 24 71 52 71 83 0 55 -44 68 -101 29z"/>
<path d="M4118 4029 c-10 -6 -18 -22 -18 -37 0 -52 42 -69 76 -31 17 19 17 23
3 47 -17 30 -36 37 -61 21z"/>
<path d="M4572 3978 c-7 -7 -12 -27 -12 -45 0 -26 7 -37 37 -58 51 -34 88 -33
101 3 13 37 2 55 -52 87 -48 28 -57 30 -74 13z"/>
<path d="M5157 3924 c-49 -27 -58 -86 -17 -112 37 -23 100 23 100 73 0 54 -30
68 -83 39z"/>
<path d="M4291 3884 c-15 -35 3 -64 67 -104 57 -36 77 -37 98 -5 23 35 10 60
-54 100 -68 42 -94 44 -111 9z"/>
<path d="M5336 3764 c-32 -31 -14 -84 29 -84 28 0 45 19 45 50 0 47 -42 66
-74 34z"/>
<path d="M4572 3748 c-22 -22 -14 -65 18 -91 43 -36 68 -42 91 -21 36 33 16
80 -48 113 -28 14 -46 14 -61 -1z"/>
<path d="M5130 3650 c-11 -11 -20 -27 -20 -35 0 -16 34 -55 48 -55 22 0 52 34
52 59 0 51 -43 68 -80 31z"/>
<path d="M5692 3464 c-29 -20 -31 -79 -2 -94 24 -13 54 0 70 30 14 27 13 37
-10 60 -24 24 -29 24 -58 4z"/>
<path d="M5410 3290 c-26 -26 -26 -65 2 -84 50 -35 106 44 62 88 -21 21 -40
20 -64 -4z"/>
<path d="M5126 3108 c-9 -12 -16 -30 -16 -39 0 -19 31 -49 52 -49 37 0 64 70
36 98 -19 19 -55 14 -72 -10z"/>
<path d="M7701 6413 c-21 -26 -21 -53 1 -80 27 -33 88 5 88 55 0 56 -54 71
-89 25z"/>
<path d="M7487 6322 c-31 -34 -15 -112 21 -112 44 0 75 64 56 114 -8 22 -57
20 -77 -2z"/>
<path d="M7261 6191 c-24 -24 -27 -69 -7 -96 12 -16 19 -18 42 -10 16 6 35 22
43 37 35 61 -30 117 -78 69z"/>
<path d="M5886 6169 c-44 -35 -26 -99 28 -99 29 0 66 40 66 71 0 51 -47 65
-94 28z"/>
<path d="M7733 6180 c-27 -11 -43 -40 -43 -77 0 -52 50 -72 83 -35 21 23 22
86 1 106 -8 9 -16 16 -17 15 -1 0 -12 -4 -24 -9z"/>
<path d="M5685 6063 c-50 -26 -65 -44 -65 -78 0 -61 41 -68 108 -18 25 18 32
32 32 57 0 32 -15 56 -34 56 -6 -1 -24 -8 -41 -17z"/>
<path d="M7050 6057 c-34 -17 -48 -69 -26 -102 21 -31 46 -32 74 -2 26 27 29
79 6 101 -19 19 -22 19 -54 3z"/>
<path d="M7494 6027 c-43 -37 -32 -117 15 -117 50 0 82 88 45 124 -21 21 -28
20 -60 -7z"/>
<path d="M5445 5914 c-47 -24 -65 -45 -65 -74 0 -57 49 -67 108 -24 36 28 43
71 16 98 -19 20 -22 20 -59 0z"/>
<path d="M7265 5895 c-40 -39 -26 -115 21 -115 24 0 64 47 64 75 0 64 -42 84
-85 40z"/>
<path d="M7706 5901 c-22 -24 -18 -90 7 -105 42 -27 97 45 77 100 -12 30 -59
33 -84 5z"/>
<path d="M5695 5829 c-67 -38 -94 -98 -60 -133 21 -20 62 -5 105 39 30 31 32
37 24 67 -11 36 -35 46 -69 27z"/>
<path d="M7489 5771 c-33 -33 -36 -56 -13 -89 19 -27 34 -28 68 -1 20 15 26
29 26 58 0 65 -34 79 -81 32z"/>
<path d="M5188 5755 c-46 -24 -88 -67 -88 -89 0 -14 37 -56 49 -56 5 0 34 17
65 37 61 40 76 69 57 109 -13 30 -24 30 -83 -1z"/>
<path d="M7046 5759 c-43 -34 -33 -119 14 -119 47 0 79 90 44 124 -20 21 -26
20 -58 -5z"/>
<path d="M5445 5674 c-49 -25 -65 -45 -65 -79 0 -62 49 -70 109 -19 32 27 39
60 21 95 -13 23 -26 24 -65 3z"/>
<path d="M7716 5669 c-46 -36 -28 -125 23 -112 47 12 71 82 40 119 -16 19 -32
18 -63 -7z"/>
<path d="M7262 5637 c-33 -35 -24 -117 13 -117 25 0 75 51 75 77 0 62 -47 83
-88 40z"/>
<path d="M7487 5545 c-32 -30 -36 -74 -8 -99 35 -31 91 8 91 64 0 63 -36 78
-83 35z"/>
<path d="M7031 5484 c-23 -29 -26 -55 -11 -83 16 -30 38 -32 70 -5 30 26 38
61 24 98 -10 26 -60 20 -83 -10z"/>
<path d="M7740 5452 c-29 -9 -50 -35 -50 -62 0 -50 44 -66 80 -30 39 39 16
108 -30 92z"/>
<path d="M7285 5428 c-32 -18 -44 -40 -45 -79 0 -63 35 -71 93 -21 19 17 23
63 7 93 -12 22 -26 23 -55 7z"/>
<path d="M6830 5363 c-33 -22 -40 -33 -40 -65 0 -26 22 -58 41 -58 21 0 69 59
69 84 0 23 -23 56 -38 56 -4 0 -19 -8 -32 -17z"/>
<path d="M7041 5264 c-32 -27 -39 -60 -21 -95 14 -26 43 -24 76 4 30 26 37 74
14 101 -18 22 -34 20 -69 -10z"/>
<path d="M7712 5167 c-26 -27 -29 -79 -6 -101 21 -21 27 -20 63 10 34 29 39
58 15 92 -20 28 -45 28 -72 -1z"/>
<path d="M6850 5142 c-51 -16 -75 -77 -47 -116 13 -17 15 -17 46 -2 37 20 56
55 47 89 -6 27 -22 37 -46 29z"/>
<path d="M8122 5134 c-31 -21 -29 -62 2 -70 59 -14 98 34 56 68 -27 22 -30 22
-58 2z"/>
<path d="M7930 5030 c-24 -24 -26 -53 -4 -74 21 -21 36 -20 62 4 26 24 28 52
6 74 -21 21 -40 20 -64 -4z"/>
<path d="M7716 4909 c-39 -31 -30 -109 13 -109 30 0 71 39 71 66 0 62 -37 80
-84 43z"/>
<path d="M8514 4567 c-32 -28 -37 -78 -10 -105 15 -15 19 -15 44 -2 34 20 49
60 36 97 -12 36 -35 40 -70 10z"/>
<path d="M8315 4446 c-28 -28 -32 -70 -10 -100 12 -16 19 -18 39 -8 40 18 59
54 48 94 -11 43 -42 49 -77 14z"/>
<path d="M8115 4325 c-14 -13 -25 -31 -25 -40 0 -29 30 -74 50 -75 3 0 18 11
33 25 27 25 35 63 21 99 -9 24 -52 19 -79 -9z"/>
<path d="M8530 4337 c-14 -7 -31 -25 -39 -41 -12 -25 -11 -33 3 -62 8 -19 19
-34 24 -34 10 0 55 31 64 44 17 25 2 106 -20 106 -4 0 -18 -6 -32 -13z"/>
<path d="M7915 4205 c-38 -37 -26 -115 17 -115 24 0 68 50 68 77 0 62 -42 81
-85 38z"/>
<path d="M8315 4196 c-28 -28 -33 -71 -11 -101 12 -16 17 -17 44 -6 35 15 51
51 43 96 -8 40 -42 45 -76 11z"/>
<path d="M7712 4084 c-32 -22 -43 -57 -31 -93 14 -41 33 -45 69 -15 23 20 30
34 30 63 0 58 -26 75 -68 45z"/>
<path d="M8123 4085 c-30 -21 -39 -69 -19 -100 21 -31 27 -31 65 1 31 26 39
60 25 98 -8 20 -43 21 -71 1z"/>
<path d="M8530 4087 c-50 -25 -62 -105 -19 -128 54 -28 109 80 63 125 -18 19
-13 19 -44 3z"/>
<path d="M7915 3956 c-54 -54 -12 -148 46 -103 27 21 38 51 30 87 -9 45 -40
52 -76 16z"/>
<path d="M8317 3950 c-31 -25 -37 -78 -11 -104 19 -20 19 -20 55 1 34 21 45
50 32 90 -12 35 -41 40 -76 13z"/>
<path d="M8119 3831 c-32 -33 -37 -65 -13 -99 20 -29 33 -28 68 4 24 23 28 32
23 67 -9 63 -34 72 -78 28z"/>
<path d="M7706 3834 c-28 -27 -38 -54 -31 -85 10 -45 35 -52 73 -23 26 21 32
33 32 63 0 57 -39 81 -74 45z"/>
<path d="M7930 3713 c-14 -9 -28 -22 -32 -27 -15 -21 -8 -73 12 -91 18 -17 21
-17 45 -1 42 28 53 85 22 124 -12 16 -18 15 -47 -5z"/>
<path d="M7488 3704 c-52 -28 -48 -134 5 -134 47 0 80 71 55 119 -16 31 -27
34 -60 15z"/>
<path d="M7260 3570 c-16 -16 -20 -33 -20 -90 0 -63 2 -71 25 -86 23 -15 27
-15 50 0 23 15 25 23 25 91 0 99 -32 133 -80 85z"/>
<path d="M7695 3565 c-29 -28 -32 -61 -9 -93 42 -61 117 25 88 102 -9 24 -52
19 -79 -9z"/>
<path d="M7045 3455 c-21 -20 -25 -34 -25 -80 0 -72 12 -95 50 -95 41 0 60 32
60 102 0 45 -5 63 -20 78 -26 26 -36 25 -65 -5z"/>
<path d="M7489 3407 c-28 -21 -41 -56 -34 -90 14 -62 37 -71 79 -32 19 17 26
34 26 60 0 66 -31 93 -71 62z"/>
<path d="M6846 3319 c-21 -17 -26 -29 -24 -53 6 -62 88 -39 88 24 0 43 -30 56
-64 29z"/>
<path d="M7042 3167 c-21 -22 -22 -31 -22 -244 0 -200 2 -221 18 -236 25 -23
45 -21 70 6 21 22 22 31 22 240 0 204 -1 218 -20 237 -26 26 -42 25 -68 -3z"/>
<path d="M6837 3102 c-31 -34 -18 -82 22 -82 44 0 63 36 45 84 -8 22 -47 20
-67 -2z"/>
<path d="M6847 2894 c-33 -18 -41 -69 -14 -86 35 -23 77 6 77 52 0 39 -26 53
-63 34z"/>
<path d="M6835 2666 c-30 -30 -31 -46 -6 -77 19 -23 21 -23 48 -9 24 14 28 22
28 60 0 39 -3 45 -22 48 -14 2 -32 -6 -48 -22z"/>
<path d="M5891 2094 c-26 -34 -26 -48 0 -73 20 -18 24 -19 50 -5 33 17 46 53
29 83 -15 29 -54 27 -79 -5z"/>
<path d="M5700 1978 c-11 -12 -20 -29 -20 -38 0 -20 31 -50 52 -50 22 0 48 33
48 61 0 50 -44 65 -80 27z"/>
<path d="M5506 1858 c-21 -30 -20 -51 5 -74 19 -17 23 -17 47 -3 29 16 37 37
28 75 -8 32 -58 34 -80 2z"/>
<path d="M5312 1748 c-21 -27 -22 -55 -4 -78 37 -46 104 3 88 64 -5 22 -12 26
-40 26 -18 0 -38 -6 -44 -12z"/>
<path d="M2552 3608 c-16 -16 -16 -160 0 -176 17 -17 65 -15 72 4 12 32 6 139
-10 162 -17 24 -43 29 -62 10z"/>
<path d="M2714 3495 c-14 -21 -16 -40 -10 -98 8 -87 32 -115 76 -87 20 13 21
169 1 193 -20 24 -48 21 -67 -8z"/>
<path d="M6113 3145 c-29 -20 -38 -62 -18 -91 32 -49 95 -18 95 47 0 56 -33
75 -77 44z"/>
<path d="M5883 2995 c-45 -31 -37 -115 10 -115 54 0 88 77 51 114 -19 20 -34
20 -61 1z"/>
<path d="M5626 2838 c-46 -66 18 -132 72 -75 24 26 27 48 12 78 -15 27 -64 25
-84 -3z"/>
<path d="M6111 2823 c-27 -22 -31 -77 -8 -101 23 -22 68 -6 86 33 28 57 -29
107 -78 68z"/>
<path d="M5402 2694 c-25 -17 -31 -71 -10 -92 33 -33 88 2 88 54 0 52 -35 69
-78 38z"/>
</g>
</svg>
